<?xml version="1.0" encoding="UTF-8"?>
<mxfile host="app.diagrams.net" agent="Mozilla/5.0 (X11; Linux x86_64) AppleWebKit/537.36 (KHTML, like Gecko) Chrome/133.0.0.0 Safari/537.36" version="26.1.1">
  <diagram name="Page-1" id="qg6JndfwUWfKP72rdOfJ">
    <mxGraphModel dx="1255" dy="686" grid="1" gridSize="10" guides="1" tooltips="1" connect="1" arrows="1" fold="1" page="1" pageScale="1" pageWidth="850" pageHeight="1100" math="0" shadow="0">
      <root>
        <mxCell id="0" />
        <mxCell id="1" parent="0" />
        <mxCell id="5SDRevrvGeyR6YumyPlK-13" style="edgeStyle=orthogonalEdgeStyle;rounded=1;orthogonalLoop=1;jettySize=auto;html=1;entryX=0;entryY=0.5;entryDx=0;entryDy=0;curved=0;" edge="1" parent="1" source="5SDRevrvGeyR6YumyPlK-3" target="5SDRevrvGeyR6YumyPlK-8">
          <mxGeometry relative="1" as="geometry" />
        </mxCell>
        <mxCell id="5SDRevrvGeyR6YumyPlK-64" style="edgeStyle=orthogonalEdgeStyle;curved=0;rounded=1;orthogonalLoop=1;jettySize=auto;html=1;entryX=0;entryY=0.5;entryDx=0;entryDy=0;" edge="1" parent="1" source="5SDRevrvGeyR6YumyPlK-3" target="5SDRevrvGeyR6YumyPlK-63">
          <mxGeometry relative="1" as="geometry">
            <Array as="points">
              <mxPoint x="360" y="110" />
              <mxPoint x="360" y="90" />
            </Array>
          </mxGeometry>
        </mxCell>
        <mxCell id="5SDRevrvGeyR6YumyPlK-3" value="Agricultu&lt;span style=&quot;background-color: transparent; color: light-dark(rgb(0, 0, 0), rgb(255, 255, 255));&quot;&gt;re&lt;/span&gt;" style="rounded=1;whiteSpace=wrap;html=1;" vertex="1" parent="1">
          <mxGeometry x="200" y="95" width="120" height="30" as="geometry" />
        </mxCell>
        <mxCell id="5SDRevrvGeyR6YumyPlK-19" style="edgeStyle=orthogonalEdgeStyle;rounded=1;orthogonalLoop=1;jettySize=auto;html=1;exitX=1;exitY=0.5;exitDx=0;exitDy=0;entryX=0;entryY=0.5;entryDx=0;entryDy=0;curved=0;" edge="1" parent="1" source="5SDRevrvGeyR6YumyPlK-4" target="5SDRevrvGeyR6YumyPlK-9">
          <mxGeometry relative="1" as="geometry" />
        </mxCell>
        <mxCell id="5SDRevrvGeyR6YumyPlK-4" value="Animal H&lt;span style=&quot;background-color: transparent; color: light-dark(rgb(0, 0, 0), rgb(255, 255, 255));&quot;&gt;usbandry&lt;/span&gt;" style="rounded=1;whiteSpace=wrap;html=1;" vertex="1" parent="1">
          <mxGeometry x="200" y="175" width="120" height="30" as="geometry" />
        </mxCell>
        <mxCell id="5SDRevrvGeyR6YumyPlK-21" style="edgeStyle=orthogonalEdgeStyle;rounded=1;orthogonalLoop=1;jettySize=auto;html=1;entryX=0;entryY=0.5;entryDx=0;entryDy=0;curved=0;" edge="1" parent="1" source="5SDRevrvGeyR6YumyPlK-6" target="5SDRevrvGeyR6YumyPlK-11">
          <mxGeometry relative="1" as="geometry" />
        </mxCell>
        <mxCell id="5SDRevrvGeyR6YumyPlK-6" value="Fishing" style="rounded=1;whiteSpace=wrap;html=1;" vertex="1" parent="1">
          <mxGeometry x="200" y="335" width="120" height="30" as="geometry" />
        </mxCell>
        <mxCell id="5SDRevrvGeyR6YumyPlK-22" style="edgeStyle=orthogonalEdgeStyle;rounded=1;orthogonalLoop=1;jettySize=auto;html=1;entryX=0;entryY=0.5;entryDx=0;entryDy=0;curved=0;" edge="1" parent="1" source="5SDRevrvGeyR6YumyPlK-7" target="5SDRevrvGeyR6YumyPlK-12">
          <mxGeometry relative="1" as="geometry" />
        </mxCell>
        <mxCell id="5SDRevrvGeyR6YumyPlK-7" value="Hunting" style="rounded=1;whiteSpace=wrap;html=1;" vertex="1" parent="1">
          <mxGeometry x="200" y="215" width="120" height="30" as="geometry" />
        </mxCell>
        <mxCell id="5SDRevrvGeyR6YumyPlK-37" style="edgeStyle=orthogonalEdgeStyle;curved=0;rounded=1;orthogonalLoop=1;jettySize=auto;html=1;entryX=0;entryY=0.5;entryDx=0;entryDy=0;" edge="1" parent="1" source="5SDRevrvGeyR6YumyPlK-8" target="5SDRevrvGeyR6YumyPlK-25">
          <mxGeometry relative="1" as="geometry" />
        </mxCell>
        <mxCell id="5SDRevrvGeyR6YumyPlK-123" style="edgeStyle=orthogonalEdgeStyle;curved=0;rounded=1;orthogonalLoop=1;jettySize=auto;html=1;entryX=0;entryY=0.5;entryDx=0;entryDy=0;" edge="1" parent="1" source="5SDRevrvGeyR6YumyPlK-8" target="5SDRevrvGeyR6YumyPlK-63">
          <mxGeometry relative="1" as="geometry" />
        </mxCell>
        <mxCell id="5SDRevrvGeyR6YumyPlK-8" value="Pottery" style="rounded=1;whiteSpace=wrap;html=1;" vertex="1" parent="1">
          <mxGeometry x="400" y="115" width="120" height="30" as="geometry" />
        </mxCell>
        <mxCell id="5SDRevrvGeyR6YumyPlK-91" style="edgeStyle=orthogonalEdgeStyle;curved=0;rounded=1;orthogonalLoop=1;jettySize=auto;html=1;entryX=0;entryY=0.5;entryDx=0;entryDy=0;" edge="1" parent="1" source="5SDRevrvGeyR6YumyPlK-9" target="5SDRevrvGeyR6YumyPlK-26">
          <mxGeometry relative="1" as="geometry" />
        </mxCell>
        <mxCell id="5SDRevrvGeyR6YumyPlK-9" value="Wheel" style="rounded=1;whiteSpace=wrap;html=1;" vertex="1" parent="1">
          <mxGeometry x="400" y="175" width="120" height="30" as="geometry" />
        </mxCell>
        <mxCell id="5SDRevrvGeyR6YumyPlK-40" style="edgeStyle=orthogonalEdgeStyle;curved=0;rounded=1;orthogonalLoop=1;jettySize=auto;html=1;entryX=0;entryY=0.5;entryDx=0;entryDy=0;" edge="1" parent="1" source="5SDRevrvGeyR6YumyPlK-10" target="5SDRevrvGeyR6YumyPlK-27">
          <mxGeometry relative="1" as="geometry" />
        </mxCell>
        <mxCell id="5SDRevrvGeyR6YumyPlK-46" style="edgeStyle=orthogonalEdgeStyle;curved=0;rounded=1;orthogonalLoop=1;jettySize=auto;html=1;entryX=0;entryY=0.5;entryDx=0;entryDy=0;" edge="1" parent="1" source="5SDRevrvGeyR6YumyPlK-10" target="5SDRevrvGeyR6YumyPlK-28">
          <mxGeometry relative="1" as="geometry" />
        </mxCell>
        <mxCell id="5SDRevrvGeyR6YumyPlK-10" value="Masonry&lt;span style=&quot;color: rgba(0, 0, 0, 0); font-family: monospace; font-size: 0px; text-align: start; text-wrap-mode: nowrap;&quot;&gt;%3CmxGraphModel%3E%3Croot%3E%3CmxCell%20id%3D%220%22%2F%3E%3CmxCell%20id%3D%221%22%20parent%3D%220%22%2F%3E%3CmxCell%20id%3D%222%22%20value%3D%22Pottery%22%20style%3D%22rounded%3D1%3BwhiteSpace%3Dwrap%3Bhtml%3D1%3B%22%20vertex%3D%221%22%20parent%3D%221%22%3E%3CmxGeometry%20x%3D%22300%22%20y%3D%22560%22%20width%3D%22110%22%20height%3D%2230%22%20as%3D%22geometry%22%2F%3E%3C%2FmxCell%3E%3C%2Froot%3E%3C%2FmxGraphModel%3E&lt;/span&gt;&lt;span style=&quot;color: rgba(0, 0, 0, 0); font-family: monospace; font-size: 0px; text-align: start; text-wrap-mode: nowrap;&quot;&gt;%3CmxGraphModel%3E%3Croot%3E%3CmxCell%20id%3D%220%22%2F%3E%3CmxCell%20id%3D%221%22%20parent%3D%220%22%2F%3E%3CmxCell%20id%3D%222%22%20value%3D%22Pottery%22%20style%3D%22rounded%3D1%3BwhiteSpace%3Dwrap%3Bhtml%3D1%3B%22%20vertex%3D%221%22%20parent%3D%221%22%3E%3CmxGeometry%20x%3D%22300%22%20y%3D%22560%22%20width%3D%22110%22%20height%3D%2230%22%20as%3D%22geometry%22%2F%3E%3C%2FmxCell%3E%3C%2Froot%3E%3C%2FmxGraphModel%3E&lt;/span&gt;" style="rounded=1;whiteSpace=wrap;html=1;" vertex="1" parent="1">
          <mxGeometry x="400" y="270" width="120" height="30" as="geometry" />
        </mxCell>
        <mxCell id="5SDRevrvGeyR6YumyPlK-52" style="edgeStyle=orthogonalEdgeStyle;curved=0;rounded=1;orthogonalLoop=1;jettySize=auto;html=1;entryX=0;entryY=0.5;entryDx=0;entryDy=0;" edge="1" parent="1" source="5SDRevrvGeyR6YumyPlK-11" target="5SDRevrvGeyR6YumyPlK-50">
          <mxGeometry relative="1" as="geometry" />
        </mxCell>
        <mxCell id="5SDRevrvGeyR6YumyPlK-11" value="Sailing&lt;span style=&quot;color: rgba(0, 0, 0, 0); font-family: monospace; font-size: 0px; text-align: start; text-wrap-mode: nowrap;&quot;&gt;%3CmxGraphModel%3E%3Croot%3E%3CmxCell%20id%3D%220%22%2F%3E%3CmxCell%20id%3D%221%22%20parent%3D%220%22%2F%3E%3CmxCell%20id%3D%222%22%20value%3D%22Masonry%26lt%3Bspan%20style%3D%26quot%3Bcolor%3A%20rgba(0%2C%200%2C%200%2C%200)%3B%20font-family%3A%20monospace%3B%20font-size%3A%200px%3B%20text-align%3A%20start%3B%20text-wrap-mode%3A%20nowrap%3B%26quot%3B%26gt%3B%253CmxGraphModel%253E%253Croot%253E%253CmxCell%2520id%253D%25220%2522%252F%253E%253CmxCell%2520id%253D%25221%2522%2520parent%253D%25220%2522%252F%253E%253CmxCell%2520id%253D%25222%2522%2520value%253D%2522Pottery%2522%2520style%253D%2522rounded%253D1%253BwhiteSpace%253Dwrap%253Bhtml%253D1%253B%2522%2520vertex%253D%25221%2522%2520parent%253D%25221%2522%253E%253CmxGeometry%2520x%253D%2522300%2522%2520y%253D%2522560%2522%2520width%253D%2522110%2522%2520height%253D%252230%2522%2520as%253D%2522geometry%2522%252F%253E%253C%252FmxCell%253E%253C%252Froot%253E%253C%252FmxGraphModel%253E%26lt%3B%2Fspan%26gt%3B%26lt%3Bspan%20style%3D%26quot%3Bcolor%3A%20rgba(0%2C%200%2C%200%2C%200)%3B%20font-family%3A%20monospace%3B%20font-size%3A%200px%3B%20text-align%3A%20start%3B%20text-wrap-mode%3A%20nowrap%3B%26quot%3B%26gt%3B%253CmxGraphModel%253E%253Croot%253E%253CmxCell%2520id%253D%25220%2522%252F%253E%253CmxCell%2520id%253D%25221%2522%2520parent%253D%25220%2522%252F%253E%253CmxCell%2520id%253D%25222%2522%2520value%253D%2522Pottery%2522%2520style%253D%2522rounded%253D1%253BwhiteSpace%253Dwrap%253Bhtml%253D1%253B%2522%2520vertex%253D%25221%2522%2520parent%253D%25221%2522%253E%253CmxGeometry%2520x%253D%2522300%2522%2520y%253D%2522560%2522%2520width%253D%2522110%2522%2520height%253D%252230%2522%2520as%253D%2522geometry%2522%252F%253E%253C%252FmxCell%253E%253C%252Froot%253E%253C%252FmxGraphModel%253E%26lt%3B%2Fspan%26gt%3B%22%20style%3D%22rounded%3D1%3BwhiteSpace%3Dwrap%3Bhtml%3D1%3B%22%20vertex%3D%221%22%20parent%3D%221%22%3E%3CmxGeometry%20x%3D%22290%22%20y%3D%22660%22%20width%3D%22110%22%20height%3D%2230%22%20as%3D%22geometry%22%2F%3E%3C%2FmxCell%3E%3C%2Froot%3E%3C%2FmxGraphModel%3E&lt;/span&gt;" style="rounded=1;whiteSpace=wrap;html=1;" vertex="1" parent="1">
          <mxGeometry x="400" y="350" width="120" height="30" as="geometry" />
        </mxCell>
        <mxCell id="5SDRevrvGeyR6YumyPlK-96" style="edgeStyle=orthogonalEdgeStyle;curved=0;rounded=1;orthogonalLoop=1;jettySize=auto;html=1;entryX=0;entryY=0.5;entryDx=0;entryDy=0;" edge="1" parent="1" source="5SDRevrvGeyR6YumyPlK-12" target="5SDRevrvGeyR6YumyPlK-26">
          <mxGeometry relative="1" as="geometry" />
        </mxCell>
        <mxCell id="5SDRevrvGeyR6YumyPlK-12" value="Archery" style="rounded=1;whiteSpace=wrap;html=1;" vertex="1" parent="1">
          <mxGeometry x="400" y="215" width="120" height="30" as="geometry" />
        </mxCell>
        <mxCell id="5SDRevrvGeyR6YumyPlK-38" style="edgeStyle=orthogonalEdgeStyle;curved=0;rounded=1;orthogonalLoop=1;jettySize=auto;html=1;entryX=0;entryY=0.5;entryDx=0;entryDy=0;" edge="1" parent="1" source="5SDRevrvGeyR6YumyPlK-25" target="5SDRevrvGeyR6YumyPlK-29">
          <mxGeometry relative="1" as="geometry" />
        </mxCell>
        <mxCell id="5SDRevrvGeyR6YumyPlK-39" style="edgeStyle=orthogonalEdgeStyle;curved=0;rounded=1;orthogonalLoop=1;jettySize=auto;html=1;entryX=0;entryY=0.5;entryDx=0;entryDy=0;" edge="1" parent="1" source="5SDRevrvGeyR6YumyPlK-25" target="5SDRevrvGeyR6YumyPlK-30">
          <mxGeometry relative="1" as="geometry" />
        </mxCell>
        <mxCell id="5SDRevrvGeyR6YumyPlK-78" style="edgeStyle=orthogonalEdgeStyle;curved=0;rounded=1;orthogonalLoop=1;jettySize=auto;html=1;entryX=0;entryY=0.5;entryDx=0;entryDy=0;" edge="1" parent="1" source="5SDRevrvGeyR6YumyPlK-25" target="5SDRevrvGeyR6YumyPlK-77">
          <mxGeometry relative="1" as="geometry" />
        </mxCell>
        <mxCell id="5SDRevrvGeyR6YumyPlK-25" value="Writing" style="rounded=1;whiteSpace=wrap;html=1;" vertex="1" parent="1">
          <mxGeometry x="600" y="115" width="120" height="30" as="geometry" />
        </mxCell>
        <mxCell id="5SDRevrvGeyR6YumyPlK-108" style="edgeStyle=orthogonalEdgeStyle;curved=0;rounded=1;orthogonalLoop=1;jettySize=auto;html=1;entryX=0;entryY=0.5;entryDx=0;entryDy=0;" edge="1" parent="1" source="5SDRevrvGeyR6YumyPlK-26" target="5SDRevrvGeyR6YumyPlK-31">
          <mxGeometry relative="1" as="geometry" />
        </mxCell>
        <mxCell id="5SDRevrvGeyR6YumyPlK-26" value="Chariotry" style="rounded=1;whiteSpace=wrap;html=1;" vertex="1" parent="1">
          <mxGeometry x="600" y="195" width="120" height="30" as="geometry" />
        </mxCell>
        <mxCell id="5SDRevrvGeyR6YumyPlK-61" style="edgeStyle=orthogonalEdgeStyle;curved=0;rounded=1;orthogonalLoop=1;jettySize=auto;html=1;entryX=0;entryY=0.5;entryDx=0;entryDy=0;" edge="1" parent="1" source="5SDRevrvGeyR6YumyPlK-27" target="5SDRevrvGeyR6YumyPlK-60">
          <mxGeometry relative="1" as="geometry">
            <Array as="points">
              <mxPoint x="770" y="265" />
              <mxPoint x="770" y="305" />
            </Array>
          </mxGeometry>
        </mxCell>
        <mxCell id="5SDRevrvGeyR6YumyPlK-27" value="Bronze Working" style="rounded=1;whiteSpace=wrap;html=1;" vertex="1" parent="1">
          <mxGeometry x="600" y="250" width="120" height="30" as="geometry" />
        </mxCell>
        <mxCell id="5SDRevrvGeyR6YumyPlK-51" style="edgeStyle=orthogonalEdgeStyle;curved=0;rounded=1;orthogonalLoop=1;jettySize=auto;html=1;entryX=0;entryY=0.5;entryDx=0;entryDy=0;" edge="1" parent="1" source="5SDRevrvGeyR6YumyPlK-28" target="5SDRevrvGeyR6YumyPlK-50">
          <mxGeometry relative="1" as="geometry">
            <Array as="points">
              <mxPoint x="750" y="305" />
              <mxPoint x="750" y="365" />
            </Array>
          </mxGeometry>
        </mxCell>
        <mxCell id="5SDRevrvGeyR6YumyPlK-28" value="Constructions" style="rounded=1;whiteSpace=wrap;html=1;" vertex="1" parent="1">
          <mxGeometry x="600" y="290" width="120" height="30" as="geometry" />
        </mxCell>
        <mxCell id="5SDRevrvGeyR6YumyPlK-45" style="edgeStyle=orthogonalEdgeStyle;curved=0;rounded=1;orthogonalLoop=1;jettySize=auto;html=1;entryX=0;entryY=0.5;entryDx=0;entryDy=0;" edge="1" parent="1" source="5SDRevrvGeyR6YumyPlK-29" target="5SDRevrvGeyR6YumyPlK-42">
          <mxGeometry relative="1" as="geometry" />
        </mxCell>
        <mxCell id="5SDRevrvGeyR6YumyPlK-29" value="Calendar" style="rounded=1;whiteSpace=wrap;html=1;" vertex="1" parent="1">
          <mxGeometry x="800" y="75" width="120" height="30" as="geometry" />
        </mxCell>
        <mxCell id="5SDRevrvGeyR6YumyPlK-47" style="edgeStyle=orthogonalEdgeStyle;curved=0;rounded=1;orthogonalLoop=1;jettySize=auto;html=1;entryX=0;entryY=0.5;entryDx=0;entryDy=0;" edge="1" parent="1" source="5SDRevrvGeyR6YumyPlK-30" target="5SDRevrvGeyR6YumyPlK-42">
          <mxGeometry relative="1" as="geometry" />
        </mxCell>
        <mxCell id="5SDRevrvGeyR6YumyPlK-49" style="edgeStyle=orthogonalEdgeStyle;curved=0;rounded=1;orthogonalLoop=1;jettySize=auto;html=1;entryX=0;entryY=0.5;entryDx=0;entryDy=0;" edge="1" parent="1" source="5SDRevrvGeyR6YumyPlK-30" target="5SDRevrvGeyR6YumyPlK-48">
          <mxGeometry relative="1" as="geometry" />
        </mxCell>
        <mxCell id="5SDRevrvGeyR6YumyPlK-30" value="Mathematics" style="rounded=1;whiteSpace=wrap;html=1;" vertex="1" parent="1">
          <mxGeometry x="800" y="115" width="120" height="30" as="geometry" />
        </mxCell>
        <mxCell id="5SDRevrvGeyR6YumyPlK-90" style="edgeStyle=orthogonalEdgeStyle;curved=0;rounded=1;orthogonalLoop=1;jettySize=auto;html=1;entryX=0;entryY=0.5;entryDx=0;entryDy=0;" edge="1" parent="1" source="5SDRevrvGeyR6YumyPlK-31" target="5SDRevrvGeyR6YumyPlK-88">
          <mxGeometry relative="1" as="geometry" />
        </mxCell>
        <mxCell id="5SDRevrvGeyR6YumyPlK-31" value="Horseback Riding" style="rounded=1;whiteSpace=wrap;html=1;" vertex="1" parent="1">
          <mxGeometry x="1000" y="260" width="120" height="30" as="geometry" />
        </mxCell>
        <mxCell id="5SDRevrvGeyR6YumyPlK-93" style="edgeStyle=orthogonalEdgeStyle;curved=0;rounded=1;orthogonalLoop=1;jettySize=auto;html=1;entryX=0;entryY=0.5;entryDx=0;entryDy=0;" edge="1" parent="1" source="5SDRevrvGeyR6YumyPlK-42" target="5SDRevrvGeyR6YumyPlK-92">
          <mxGeometry relative="1" as="geometry" />
        </mxCell>
        <mxCell id="5SDRevrvGeyR6YumyPlK-42" value="Astrology" style="rounded=1;whiteSpace=wrap;html=1;" vertex="1" parent="1">
          <mxGeometry x="1000" y="75" width="120" height="30" as="geometry" />
        </mxCell>
        <mxCell id="5SDRevrvGeyR6YumyPlK-48" value="Currency" style="rounded=1;whiteSpace=wrap;html=1;" vertex="1" parent="1">
          <mxGeometry x="1000" y="115" width="120" height="30" as="geometry" />
        </mxCell>
        <mxCell id="5SDRevrvGeyR6YumyPlK-50" value="Ship Building" style="rounded=1;whiteSpace=wrap;html=1;" vertex="1" parent="1">
          <mxGeometry x="800" y="350" width="120" height="30" as="geometry" />
        </mxCell>
        <mxCell id="5SDRevrvGeyR6YumyPlK-58" value="" style="endArrow=none;dashed=1;html=1;dashPattern=1 3;strokeWidth=2;rounded=0;curved=1;strokeColor=#3FDFFF;" edge="1" parent="1">
          <mxGeometry width="50" height="50" relative="1" as="geometry">
            <mxPoint x="550" y="450" as="sourcePoint" />
            <mxPoint x="550" y="10" as="targetPoint" />
          </mxGeometry>
        </mxCell>
        <mxCell id="5SDRevrvGeyR6YumyPlK-59" value="" style="endArrow=none;dashed=1;html=1;dashPattern=1 3;strokeWidth=2;rounded=0;curved=1;strokeColor=#3FDFFF;" edge="1" parent="1">
          <mxGeometry width="50" height="50" relative="1" as="geometry">
            <mxPoint x="1150" y="450" as="sourcePoint" />
            <mxPoint x="1150" y="10" as="targetPoint" />
          </mxGeometry>
        </mxCell>
        <mxCell id="5SDRevrvGeyR6YumyPlK-86" style="edgeStyle=orthogonalEdgeStyle;curved=0;rounded=1;orthogonalLoop=1;jettySize=auto;html=1;entryX=0;entryY=0.5;entryDx=0;entryDy=0;" edge="1" parent="1" source="5SDRevrvGeyR6YumyPlK-60" target="5SDRevrvGeyR6YumyPlK-85">
          <mxGeometry relative="1" as="geometry" />
        </mxCell>
        <mxCell id="5SDRevrvGeyR6YumyPlK-87" style="edgeStyle=orthogonalEdgeStyle;curved=0;rounded=1;orthogonalLoop=1;jettySize=auto;html=1;entryX=0;entryY=0.5;entryDx=0;entryDy=0;" edge="1" parent="1" source="5SDRevrvGeyR6YumyPlK-60" target="5SDRevrvGeyR6YumyPlK-84">
          <mxGeometry relative="1" as="geometry" />
        </mxCell>
        <mxCell id="5SDRevrvGeyR6YumyPlK-60" value="Metallurgy" style="rounded=1;whiteSpace=wrap;html=1;" vertex="1" parent="1">
          <mxGeometry x="800" y="290" width="120" height="30" as="geometry" />
        </mxCell>
        <mxCell id="5SDRevrvGeyR6YumyPlK-62" value="Cartography" style="rounded=1;whiteSpace=wrap;html=1;" vertex="1" parent="1">
          <mxGeometry x="1000" y="220" width="120" height="30" as="geometry" />
        </mxCell>
        <mxCell id="5SDRevrvGeyR6YumyPlK-109" style="edgeStyle=orthogonalEdgeStyle;curved=0;rounded=1;orthogonalLoop=1;jettySize=auto;html=1;entryX=0;entryY=0.5;entryDx=0;entryDy=0;" edge="1" parent="1" source="5SDRevrvGeyR6YumyPlK-63" target="5SDRevrvGeyR6YumyPlK-29">
          <mxGeometry relative="1" as="geometry" />
        </mxCell>
        <mxCell id="5SDRevrvGeyR6YumyPlK-63" value="Irrigation" style="rounded=1;whiteSpace=wrap;html=1;" vertex="1" parent="1">
          <mxGeometry x="600" y="75" width="120" height="30" as="geometry" />
        </mxCell>
        <mxCell id="5SDRevrvGeyR6YumyPlK-66" style="edgeStyle=orthogonalEdgeStyle;curved=0;rounded=1;orthogonalLoop=1;jettySize=auto;html=1;entryX=0;entryY=0.5;entryDx=0;entryDy=0;" edge="1" parent="1" source="5SDRevrvGeyR6YumyPlK-65" target="5SDRevrvGeyR6YumyPlK-10">
          <mxGeometry relative="1" as="geometry" />
        </mxCell>
        <mxCell id="5SDRevrvGeyR6YumyPlK-65" value="Copper Working" style="rounded=1;whiteSpace=wrap;html=1;" vertex="1" parent="1">
          <mxGeometry x="200" y="255" width="120" height="30" as="geometry" />
        </mxCell>
        <mxCell id="5SDRevrvGeyR6YumyPlK-69" style="edgeStyle=orthogonalEdgeStyle;curved=0;rounded=1;orthogonalLoop=1;jettySize=auto;html=1;entryX=0;entryY=0.5;entryDx=0;entryDy=0;" edge="1" parent="1" source="5SDRevrvGeyR6YumyPlK-68" target="5SDRevrvGeyR6YumyPlK-3">
          <mxGeometry relative="1" as="geometry" />
        </mxCell>
        <mxCell id="5SDRevrvGeyR6YumyPlK-70" style="edgeStyle=orthogonalEdgeStyle;curved=0;rounded=1;orthogonalLoop=1;jettySize=auto;html=1;entryX=0;entryY=0.5;entryDx=0;entryDy=0;" edge="1" parent="1" source="5SDRevrvGeyR6YumyPlK-68" target="5SDRevrvGeyR6YumyPlK-4">
          <mxGeometry relative="1" as="geometry" />
        </mxCell>
        <mxCell id="5SDRevrvGeyR6YumyPlK-71" style="edgeStyle=orthogonalEdgeStyle;curved=0;rounded=1;orthogonalLoop=1;jettySize=auto;html=1;entryX=0;entryY=0.5;entryDx=0;entryDy=0;" edge="1" parent="1" source="5SDRevrvGeyR6YumyPlK-68" target="5SDRevrvGeyR6YumyPlK-65">
          <mxGeometry relative="1" as="geometry" />
        </mxCell>
        <mxCell id="5SDRevrvGeyR6YumyPlK-72" style="edgeStyle=orthogonalEdgeStyle;curved=0;rounded=1;orthogonalLoop=1;jettySize=auto;html=1;entryX=0;entryY=0.5;entryDx=0;entryDy=0;" edge="1" parent="1" source="5SDRevrvGeyR6YumyPlK-68" target="5SDRevrvGeyR6YumyPlK-7">
          <mxGeometry relative="1" as="geometry" />
        </mxCell>
        <mxCell id="5SDRevrvGeyR6YumyPlK-73" style="edgeStyle=orthogonalEdgeStyle;curved=0;rounded=1;orthogonalLoop=1;jettySize=auto;html=1;entryX=0;entryY=0.5;entryDx=0;entryDy=0;" edge="1" parent="1" source="5SDRevrvGeyR6YumyPlK-68" target="5SDRevrvGeyR6YumyPlK-6">
          <mxGeometry relative="1" as="geometry" />
        </mxCell>
        <mxCell id="5SDRevrvGeyR6YumyPlK-68" value="Society" style="rounded=1;whiteSpace=wrap;html=1;" vertex="1" parent="1">
          <mxGeometry y="215" width="120" height="30" as="geometry" />
        </mxCell>
        <mxCell id="5SDRevrvGeyR6YumyPlK-75" value="" style="endArrow=none;dashed=1;html=1;dashPattern=1 3;strokeWidth=2;rounded=0;curved=1;strokeColor=#3FDFFF;" edge="1" parent="1">
          <mxGeometry width="50" height="50" relative="1" as="geometry">
            <mxPoint x="570" y="450" as="sourcePoint" />
            <mxPoint x="570" y="10" as="targetPoint" />
          </mxGeometry>
        </mxCell>
        <mxCell id="5SDRevrvGeyR6YumyPlK-76" value="" style="endArrow=none;dashed=1;html=1;dashPattern=1 3;strokeWidth=2;rounded=0;curved=1;strokeColor=#3FDFFF;" edge="1" parent="1">
          <mxGeometry width="50" height="50" relative="1" as="geometry">
            <mxPoint x="1170" y="450" as="sourcePoint" />
            <mxPoint x="1170" y="10" as="targetPoint" />
          </mxGeometry>
        </mxCell>
        <mxCell id="5SDRevrvGeyR6YumyPlK-79" style="edgeStyle=orthogonalEdgeStyle;curved=0;rounded=1;orthogonalLoop=1;jettySize=auto;html=1;entryX=0;entryY=0.5;entryDx=0;entryDy=0;" edge="1" parent="1" source="5SDRevrvGeyR6YumyPlK-77" target="5SDRevrvGeyR6YumyPlK-62">
          <mxGeometry relative="1" as="geometry" />
        </mxCell>
        <mxCell id="5SDRevrvGeyR6YumyPlK-95" style="edgeStyle=orthogonalEdgeStyle;curved=0;rounded=1;orthogonalLoop=1;jettySize=auto;html=1;entryX=0;entryY=0.5;entryDx=0;entryDy=0;" edge="1" parent="1" source="5SDRevrvGeyR6YumyPlK-77" target="5SDRevrvGeyR6YumyPlK-94">
          <mxGeometry relative="1" as="geometry" />
        </mxCell>
        <mxCell id="5SDRevrvGeyR6YumyPlK-107" style="edgeStyle=orthogonalEdgeStyle;curved=0;rounded=1;orthogonalLoop=1;jettySize=auto;html=1;entryX=0;entryY=0.5;entryDx=0;entryDy=0;" edge="1" parent="1" source="5SDRevrvGeyR6YumyPlK-77" target="5SDRevrvGeyR6YumyPlK-106">
          <mxGeometry relative="1" as="geometry" />
        </mxCell>
        <mxCell id="5SDRevrvGeyR6YumyPlK-77" value="Literature" style="rounded=1;whiteSpace=wrap;html=1;" vertex="1" parent="1">
          <mxGeometry x="800" y="165" width="120" height="30" as="geometry" />
        </mxCell>
        <mxCell id="5SDRevrvGeyR6YumyPlK-81" value="&lt;font style=&quot;font-size: 20px;&quot;&gt;Copper Age&lt;/font&gt;" style="text;html=1;align=center;verticalAlign=middle;whiteSpace=wrap;rounded=0;" vertex="1" parent="1">
          <mxGeometry x="195" y="10" width="130" height="30" as="geometry" />
        </mxCell>
        <mxCell id="5SDRevrvGeyR6YumyPlK-82" value="&lt;font style=&quot;font-size: 20px;&quot;&gt;Bronze Age&lt;/font&gt;" style="text;html=1;align=center;verticalAlign=middle;whiteSpace=wrap;rounded=0;" vertex="1" parent="1">
          <mxGeometry x="795" y="10" width="130" height="30" as="geometry" />
        </mxCell>
        <mxCell id="5SDRevrvGeyR6YumyPlK-83" value="&lt;font style=&quot;font-size: 20px;&quot;&gt;Iron Age&lt;/font&gt;" style="text;html=1;align=center;verticalAlign=middle;whiteSpace=wrap;rounded=0;" vertex="1" parent="1">
          <mxGeometry x="1400" y="10" width="130" height="30" as="geometry" />
        </mxCell>
        <mxCell id="5SDRevrvGeyR6YumyPlK-89" style="edgeStyle=orthogonalEdgeStyle;curved=0;rounded=1;orthogonalLoop=1;jettySize=auto;html=1;entryX=0;entryY=0.5;entryDx=0;entryDy=0;" edge="1" parent="1" source="5SDRevrvGeyR6YumyPlK-84" target="5SDRevrvGeyR6YumyPlK-88">
          <mxGeometry relative="1" as="geometry" />
        </mxCell>
        <mxCell id="5SDRevrvGeyR6YumyPlK-98" style="edgeStyle=orthogonalEdgeStyle;curved=0;rounded=1;orthogonalLoop=1;jettySize=auto;html=1;entryX=0;entryY=0.5;entryDx=0;entryDy=0;" edge="1" parent="1" source="5SDRevrvGeyR6YumyPlK-84" target="5SDRevrvGeyR6YumyPlK-97">
          <mxGeometry relative="1" as="geometry" />
        </mxCell>
        <mxCell id="5SDRevrvGeyR6YumyPlK-105" style="edgeStyle=orthogonalEdgeStyle;curved=0;rounded=1;orthogonalLoop=1;jettySize=auto;html=1;entryX=0;entryY=0.5;entryDx=0;entryDy=0;" edge="1" parent="1" source="5SDRevrvGeyR6YumyPlK-84" target="5SDRevrvGeyR6YumyPlK-104">
          <mxGeometry relative="1" as="geometry" />
        </mxCell>
        <mxCell id="5SDRevrvGeyR6YumyPlK-84" value="Iron Working" style="rounded=1;whiteSpace=wrap;html=1;" vertex="1" parent="1">
          <mxGeometry x="1210" y="290" width="120" height="30" as="geometry" />
        </mxCell>
        <mxCell id="5SDRevrvGeyR6YumyPlK-116" style="edgeStyle=orthogonalEdgeStyle;curved=0;rounded=1;orthogonalLoop=1;jettySize=auto;html=1;entryX=0;entryY=0.5;entryDx=0;entryDy=0;" edge="1" parent="1" source="5SDRevrvGeyR6YumyPlK-85" target="5SDRevrvGeyR6YumyPlK-110">
          <mxGeometry relative="1" as="geometry" />
        </mxCell>
        <mxCell id="5SDRevrvGeyR6YumyPlK-85" value="Jewelry" style="rounded=1;whiteSpace=wrap;html=1;" vertex="1" parent="1">
          <mxGeometry x="1000" y="330" width="120" height="30" as="geometry" />
        </mxCell>
        <mxCell id="5SDRevrvGeyR6YumyPlK-88" value="Stirrup" style="rounded=1;whiteSpace=wrap;html=1;" vertex="1" parent="1">
          <mxGeometry x="1400" y="210" width="120" height="30" as="geometry" />
        </mxCell>
        <mxCell id="5SDRevrvGeyR6YumyPlK-92" value="Astronomy" style="rounded=1;whiteSpace=wrap;html=1;" vertex="1" parent="1">
          <mxGeometry x="1200" y="75" width="120" height="30" as="geometry" />
        </mxCell>
        <mxCell id="5SDRevrvGeyR6YumyPlK-102" style="edgeStyle=orthogonalEdgeStyle;curved=0;rounded=1;orthogonalLoop=1;jettySize=auto;html=1;entryX=0;entryY=0.5;entryDx=0;entryDy=0;" edge="1" parent="1" source="5SDRevrvGeyR6YumyPlK-94" target="5SDRevrvGeyR6YumyPlK-101">
          <mxGeometry relative="1" as="geometry" />
        </mxCell>
        <mxCell id="5SDRevrvGeyR6YumyPlK-103" style="edgeStyle=orthogonalEdgeStyle;curved=0;rounded=1;orthogonalLoop=1;jettySize=auto;html=1;entryX=0;entryY=0.5;entryDx=0;entryDy=0;" edge="1" parent="1" source="5SDRevrvGeyR6YumyPlK-94" target="5SDRevrvGeyR6YumyPlK-100">
          <mxGeometry relative="1" as="geometry" />
        </mxCell>
        <mxCell id="5SDRevrvGeyR6YumyPlK-94" value="Philosophy" style="rounded=1;whiteSpace=wrap;html=1;" vertex="1" parent="1">
          <mxGeometry x="1200" y="145" width="120" height="30" as="geometry" />
        </mxCell>
        <mxCell id="5SDRevrvGeyR6YumyPlK-113" style="edgeStyle=orthogonalEdgeStyle;curved=1;rounded=0;orthogonalLoop=1;jettySize=auto;html=1;entryX=0;entryY=0.5;entryDx=0;entryDy=0;" edge="1" parent="1" source="5SDRevrvGeyR6YumyPlK-97" target="5SDRevrvGeyR6YumyPlK-111">
          <mxGeometry relative="1" as="geometry" />
        </mxCell>
        <mxCell id="5SDRevrvGeyR6YumyPlK-125" style="edgeStyle=orthogonalEdgeStyle;curved=0;rounded=1;orthogonalLoop=1;jettySize=auto;html=1;entryX=0;entryY=0.5;entryDx=0;entryDy=0;" edge="1" parent="1" source="5SDRevrvGeyR6YumyPlK-97" target="5SDRevrvGeyR6YumyPlK-118">
          <mxGeometry relative="1" as="geometry" />
        </mxCell>
        <mxCell id="5SDRevrvGeyR6YumyPlK-97" value="Engineering" style="rounded=1;whiteSpace=wrap;html=1;" vertex="1" parent="1">
          <mxGeometry x="1400" y="250" width="120" height="30" as="geometry" />
        </mxCell>
        <mxCell id="5SDRevrvGeyR6YumyPlK-99" value="Medicine" style="rounded=1;whiteSpace=wrap;html=1;" vertex="1" parent="1">
          <mxGeometry x="1600" y="85" width="120" height="30" as="geometry" />
        </mxCell>
        <mxCell id="5SDRevrvGeyR6YumyPlK-122" style="edgeStyle=orthogonalEdgeStyle;curved=0;rounded=1;orthogonalLoop=1;jettySize=auto;html=1;entryX=0;entryY=0.5;entryDx=0;entryDy=0;" edge="1" parent="1" source="5SDRevrvGeyR6YumyPlK-100" target="5SDRevrvGeyR6YumyPlK-99">
          <mxGeometry relative="1" as="geometry" />
        </mxCell>
        <mxCell id="5SDRevrvGeyR6YumyPlK-100" value="Anatomy" style="rounded=1;whiteSpace=wrap;html=1;" vertex="1" parent="1">
          <mxGeometry x="1400" y="85" width="120" height="30" as="geometry" />
        </mxCell>
        <mxCell id="5SDRevrvGeyR6YumyPlK-120" style="edgeStyle=orthogonalEdgeStyle;curved=1;rounded=0;orthogonalLoop=1;jettySize=auto;html=1;entryX=0;entryY=0.5;entryDx=0;entryDy=0;" edge="1" parent="1" source="5SDRevrvGeyR6YumyPlK-101" target="5SDRevrvGeyR6YumyPlK-119">
          <mxGeometry relative="1" as="geometry" />
        </mxCell>
        <mxCell id="5SDRevrvGeyR6YumyPlK-121" style="edgeStyle=orthogonalEdgeStyle;curved=0;rounded=1;orthogonalLoop=1;jettySize=auto;html=1;entryX=0;entryY=0.5;entryDx=0;entryDy=0;" edge="1" parent="1" source="5SDRevrvGeyR6YumyPlK-101" target="5SDRevrvGeyR6YumyPlK-99">
          <mxGeometry relative="1" as="geometry" />
        </mxCell>
        <mxCell id="5SDRevrvGeyR6YumyPlK-101" value="Education" style="rounded=1;whiteSpace=wrap;html=1;" vertex="1" parent="1">
          <mxGeometry x="1400" y="125" width="120" height="30" as="geometry" />
        </mxCell>
        <mxCell id="5SDRevrvGeyR6YumyPlK-104" value="Metal Armor" style="rounded=1;whiteSpace=wrap;html=1;" vertex="1" parent="1">
          <mxGeometry x="1400" y="290" width="120" height="30" as="geometry" />
        </mxCell>
        <mxCell id="5SDRevrvGeyR6YumyPlK-106" value="Drama and Poetry" style="rounded=1;whiteSpace=wrap;html=1;" vertex="1" parent="1">
          <mxGeometry x="1200" y="185" width="120" height="30" as="geometry" />
        </mxCell>
        <mxCell id="5SDRevrvGeyR6YumyPlK-117" style="edgeStyle=orthogonalEdgeStyle;curved=0;rounded=1;orthogonalLoop=1;jettySize=auto;html=1;entryX=0;entryY=0.5;entryDx=0;entryDy=0;" edge="1" parent="1" source="5SDRevrvGeyR6YumyPlK-110" target="5SDRevrvGeyR6YumyPlK-112">
          <mxGeometry relative="1" as="geometry" />
        </mxCell>
        <mxCell id="5SDRevrvGeyR6YumyPlK-110" value="Glass Blowing" style="rounded=1;whiteSpace=wrap;html=1;" vertex="1" parent="1">
          <mxGeometry x="1210" y="350" width="120" height="30" as="geometry" />
        </mxCell>
        <mxCell id="5SDRevrvGeyR6YumyPlK-111" value="Mechanics" style="rounded=1;whiteSpace=wrap;html=1;" vertex="1" parent="1">
          <mxGeometry x="1600" y="250" width="120" height="30" as="geometry" />
        </mxCell>
        <mxCell id="5SDRevrvGeyR6YumyPlK-112" value="Optics" style="rounded=1;whiteSpace=wrap;html=1;" vertex="1" parent="1">
          <mxGeometry x="1400" y="350" width="120" height="30" as="geometry" />
        </mxCell>
        <mxCell id="5SDRevrvGeyR6YumyPlK-118" value="Crop Rotation" style="rounded=1;whiteSpace=wrap;html=1;" vertex="1" parent="1">
          <mxGeometry x="1600" y="200" width="120" height="30" as="geometry" />
        </mxCell>
        <mxCell id="5SDRevrvGeyR6YumyPlK-119" value="Alchemy" style="rounded=1;whiteSpace=wrap;html=1;" vertex="1" parent="1">
          <mxGeometry x="1600" y="125" width="120" height="30" as="geometry" />
        </mxCell>
      </root>
    </mxGraphModel>
  </diagram>
</mxfile>
